<?xml version="1.0" encoding="UTF-8" standalone="no" ?>
<!DOCTYPE svg PUBLIC "-//W3C//DTD SVG 1.1//EN" "http://www.w3.org/Graphics/SVG/1.1/DTD/svg11.dtd">
<svg xmlns="http://www.w3.org/2000/svg" xmlns:xlink="http://www.w3.org/1999/xlink" version="1.1" width="640" height="640" viewBox="0 0 640 640" xml:space="preserve">
<desc>Created with Fabric.js 4.6.0</desc>
<defs>
</defs>
<g transform="matrix(1 0 0 1 320 340.34)" id="4mmnySULcKpbVfqtI2eUa"  >
<path style="stroke: rgb(222,222,222); stroke-width: 8; stroke-dasharray: none; stroke-linecap: butt; stroke-dashoffset: 0; stroke-linejoin: miter; stroke-miterlimit: 4; fill: none; fill-rule: nonzero; opacity: 1;" vector-effect="non-scaling-stroke"  transform=" translate(-171.66, -171.66)" d="M 171.65563 0 C 266.40954 0 343.31126 76.90172 343.31126 171.65563 C 343.31126 266.40954 266.40954 343.31126 171.65563 343.31126 C 76.90172 343.31126 0 266.40954 0 171.65563 C 0 76.90172 76.90172 0 171.65563 0 z" stroke-linecap="round" />
</g>
<g transform="matrix(1 0 0 1.16 381.88 283.55)" id="69HmyQwbHJx9_WKFEaVby"  >
<path style="stroke: rgb(222,222,222); stroke-width: 0; stroke-dasharray: none; stroke-linecap: butt; stroke-dashoffset: 0; stroke-linejoin: miter; stroke-miterlimit: 4; fill: rgb(222,222,222); fill-rule: nonzero; opacity: 1;" vector-effect="non-scaling-stroke"  transform=" translate(0, 0)" d="M 0 -31.36424 C 17.31306 -31.36424 31.36424 -17.31306 31.36424 0 C 31.36424 17.31306 17.31306 31.36424 0 31.36424 C -17.31306 31.36424 -31.36424 17.31306 -31.36424 0 C -31.36424 -17.31306 -17.31306 -31.36424 0 -31.36424 z" stroke-linecap="round" />
</g>
<g transform="matrix(1 0 0 1.16 263.88 283.62)" id="awRGVxGZhzQ7Nt_4m2Rk0"  >
<path style="stroke: rgb(222,222,222); stroke-width: 0; stroke-dasharray: none; stroke-linecap: butt; stroke-dashoffset: 0; stroke-linejoin: miter; stroke-miterlimit: 4; fill: rgb(222,222,222); fill-rule: nonzero; opacity: 1;" vector-effect="non-scaling-stroke"  transform=" translate(0, 0)" d="M 0 -31.36424 C 17.31306 -31.36424 31.36424 -17.31306 31.36424 0 C 31.36424 17.31306 17.31306 31.36424 0 31.36424 C -17.31306 31.36424 -31.36424 17.31306 -31.36424 0 C -31.36424 -17.31306 -17.31306 -31.36424 0 -31.36424 z" stroke-linecap="round" />
</g>
<g transform="matrix(1 0 0 1 316.18 405.47)" id="xN-OPlunBsAHNY1Je4wt5"  >
<path style="stroke: rgb(222,222,222); stroke-width: 6; stroke-dasharray: none; stroke-linecap: butt; stroke-dashoffset: 0; stroke-linejoin: miter; stroke-miterlimit: 4; fill: rgb(255,255,255); fill-opacity: 0; fill-rule: nonzero; opacity: 1;" vector-effect="non-scaling-stroke"  transform=" translate(0, 0)" d="M -86.54818 12.43267 C -86.54818 12.43267 -2.458439999999996 -43.51435 86.54818 12.43267" stroke-linecap="round" />
</g>
</svg>